<svg width="15" height="16" viewBox="0 0 15 16" fill="none" xmlns="http://www.w3.org/2000/svg">
<path d="M13.6957 1.95652H11.9022C11.8589 1.95652 11.8175 1.93934 11.7869 1.90877C11.7563 1.87819 11.7391 1.83672 11.7391 1.79348V0.652174C11.7391 0.479207 11.6704 0.313324 11.5481 0.191017C11.4258 0.068711 11.2599 0 11.087 0C10.914 0 10.7481 0.068711 10.6258 0.191017C10.5035 0.313324 10.4348 0.479207 10.4348 0.652174V3.75C10.4348 3.87973 10.3833 4.00414 10.2915 4.09587C10.1998 4.1876 10.0754 4.23913 9.94565 4.23913C9.81593 4.23913 9.69151 4.1876 9.59978 4.09587C9.50806 4.00414 9.45652 3.87973 9.45652 3.75V2.28261C9.45652 2.19613 9.42217 2.11318 9.36101 2.05203C9.29986 1.99088 9.21692 1.95652 9.13043 1.95652H5.05435C5.01111 1.95652 4.96964 1.93934 4.93906 1.90877C4.90848 1.87819 4.8913 1.83672 4.8913 1.79348V0.652174C4.8913 0.479207 4.82259 0.313324 4.70029 0.191017C4.57798 0.068711 4.4121 0 4.23913 0C4.06616 0 3.90028 0.068711 3.77797 0.191017C3.65567 0.313324 3.58696 0.479207 3.58696 0.652174V3.75C3.58696 3.87973 3.53542 4.00414 3.44369 4.09587C3.35196 4.1876 3.22755 4.23913 3.09783 4.23913C2.9681 4.23913 2.84369 4.1876 2.75196 4.09587C2.66023 4.00414 2.6087 3.87973 2.6087 3.75V2.28261C2.6087 2.19613 2.57434 2.11318 2.51319 2.05203C2.45203 1.99088 2.36909 1.95652 2.28261 1.95652H1.30435C0.958413 1.95652 0.626647 2.09394 0.382035 2.33856C0.137422 2.58317 0 2.91494 0 3.26087V14.3478C0 14.6938 0.137422 15.0255 0.382035 15.2701C0.626647 15.5148 0.958413 15.6522 1.30435 15.6522H13.6957C14.0416 15.6522 14.3734 15.5148 14.618 15.2701C14.8626 15.0255 15 14.6938 15 14.3478V3.26087C15 2.91494 14.8626 2.58317 14.618 2.33856C14.3734 2.09394 14.0416 1.95652 13.6957 1.95652ZM13.6957 14.0217C13.6957 14.1082 13.6613 14.1912 13.6001 14.2523C13.539 14.3135 13.456 14.3478 13.3696 14.3478H1.63043C1.54395 14.3478 1.46101 14.3135 1.39986 14.2523C1.3387 14.1912 1.30435 14.1082 1.30435 14.0217V6.19565C1.30435 6.10917 1.3387 6.02623 1.39986 5.96507C1.46101 5.90392 1.54395 5.86957 1.63043 5.86957H13.3696C13.456 5.86957 13.539 5.90392 13.6001 5.96507C13.6613 6.02623 13.6957 6.10917 13.6957 6.19565V14.0217Z" fill="#3C57BC"/>
</svg>
