<svg width="22" height="22" viewBox="0 0 22 22" fill="none" xmlns="http://www.w3.org/2000/svg">
<path d="M2.71634 8.67938C2.6004 8.68043 2.48625 8.65078 2.38548 8.59348C2.31157 8.55191 2.24668 8.49604 2.19462 8.42913C2.14256 8.36221 2.10437 8.28553 2.08228 8.20372C2.0602 8.12186 2.05466 8.03638 2.06599 7.95237C2.07733 7.86831 2.10531 7.78741 2.1483 7.71436C2.97673 6.33161 5.49721 3.10428 10.9972 3.10428C13.3806 3.10428 15.471 3.73033 17.2074 4.96436C18.6365 5.97713 19.4374 7.12352 19.8189 7.67567C19.8673 7.74529 19.9013 7.82381 19.9189 7.90676C19.9365 7.98968 19.9373 8.07529 19.9212 8.15853C19.9052 8.24176 19.8727 8.32096 19.8256 8.39145C19.7786 8.46194 19.7178 8.52231 19.6471 8.56896C19.5025 8.66457 19.3263 8.70009 19.156 8.66801C18.9856 8.63593 18.8344 8.53876 18.7344 8.39709C18.044 7.40411 15.9385 4.38258 10.9972 4.38258C6.17399 4.38258 3.99335 7.16307 3.28309 8.35543C3.22602 8.45498 3.1434 8.53752 3.04376 8.59445C2.94413 8.65142 2.83109 8.68075 2.71634 8.67938Z" fill="white"/>
<path d="M13.7683 21.312C13.7134 21.3127 13.6587 21.3065 13.6054 21.2936C9.6158 20.3053 8.12612 16.317 8.06553 16.1511L8.05609 16.1146C8.02341 15.9994 7.22293 13.2645 8.45181 11.6627C9.01511 10.9322 9.87191 10.5575 11.0033 10.5575C12.0551 10.5575 12.814 10.8845 13.3356 11.5613C13.7653 12.1138 13.9371 12.7953 14.1034 13.4518C14.4527 14.8191 14.7049 15.5371 16.1569 15.611C16.7945 15.6432 17.2135 15.2703 17.4511 14.9528C18.0935 14.0869 18.2051 12.6754 17.7209 11.4294C17.0987 9.82107 14.8906 6.78878 10.9973 6.78878C9.33525 6.78878 7.80813 7.32288 6.58356 8.32663C5.56995 9.15804 4.76686 10.3319 4.38014 11.5385C3.66301 13.7849 4.60356 17.316 4.61258 17.3482C4.63454 17.4304 4.63986 17.5162 4.62817 17.6005C4.61648 17.6846 4.58797 17.7657 4.54445 17.8388C4.50093 17.9119 4.44322 17.9756 4.37469 18.026C4.30619 18.0763 4.22827 18.1126 4.14555 18.1324C3.97843 18.1769 3.80055 18.154 3.65003 18.0689C3.49952 17.9838 3.38834 17.8431 3.34032 17.6769C3.29736 17.5158 2.29276 13.7496 3.12119 11.1535C4.02352 8.34038 6.80828 5.50449 10.9985 5.50449C12.9351 5.50449 14.7647 6.16274 16.2918 7.40579C17.4742 8.3726 18.4402 9.6711 18.9455 10.9691C19.5878 12.6264 19.4156 14.4865 18.5076 15.7017C17.9026 16.512 17.0412 16.9357 16.0868 16.8898C13.6007 16.7651 13.1538 15.0297 12.8281 13.7638C12.4929 12.4653 12.2785 11.8392 10.9985 11.8392C10.2956 11.8392 9.80188 12.0326 9.49466 12.4331C9.0757 12.9809 9.04306 13.8373 9.08945 14.4586C9.11993 14.8915 9.19335 15.3203 9.30858 15.7386C9.41088 15.9964 10.7424 19.262 13.9316 20.0522C14.014 20.0717 14.0917 20.1074 14.1602 20.1573C14.2287 20.2071 14.2866 20.2701 14.3306 20.3425C14.3746 20.4148 14.4038 20.4952 14.4164 20.579C14.429 20.6628 14.4249 20.7482 14.4042 20.8304C14.3653 20.9691 14.2821 21.0912 14.1673 21.1782C14.0524 21.2651 13.9123 21.3122 13.7683 21.312Z" fill="white"/>
<path d="M8.64742 21.0172C8.558 21.0174 8.46945 20.9996 8.38709 20.9648C8.30468 20.93 8.23016 20.879 8.16792 20.8148C6.57122 19.139 5.66803 17.2652 5.32813 14.9222V14.9097C5.13737 13.3585 5.41663 11.1624 6.78517 9.65256C7.79538 8.53839 9.21548 7.97208 10.9986 7.97208C13.1075 7.97208 14.7648 8.95259 15.7982 10.8032C16.548 12.1477 16.6967 13.4874 16.7005 13.5424C16.7084 13.6273 16.6995 13.7128 16.6742 13.7941C16.649 13.8755 16.6079 13.951 16.5534 14.0165C16.4989 14.0819 16.4321 14.136 16.3567 14.1756C16.2813 14.2152 16.1988 14.2395 16.114 14.2471C15.9429 14.2657 15.7713 14.2162 15.6363 14.1094C15.5013 14.0026 15.4138 13.8469 15.3926 13.6761C15.2794 12.8723 15.0193 12.096 14.6251 11.3863C13.8243 9.97307 12.6057 9.25468 10.9939 9.25468C9.60177 9.25468 8.51249 9.67359 7.76316 10.5007C6.68292 11.6931 6.4741 13.53 6.62232 14.7451C6.9201 16.817 7.71632 18.4653 9.12221 19.9382C9.18088 19.9993 9.22667 20.0715 9.25692 20.1506C9.28712 20.2297 9.3011 20.3141 9.29812 20.3987C9.29505 20.4833 9.27502 20.5664 9.23918 20.6432C9.20334 20.7199 9.15246 20.7886 9.08958 20.8453C8.9684 20.9551 8.81096 21.0164 8.64742 21.0172Z" fill="white"/>
<path d="M16.0031 19.1714C14.6066 19.1714 13.4194 18.7846 12.4694 18.016C10.5607 16.4781 10.3467 13.9735 10.3373 13.8678C10.3238 13.6943 10.3799 13.5226 10.493 13.3903C10.6062 13.2582 10.7673 13.1763 10.9408 13.1629C11.1143 13.1495 11.286 13.2054 11.4182 13.3187C11.5504 13.4318 11.6322 13.5929 11.6457 13.7664C11.6504 13.8034 11.8412 15.8521 13.3124 17.032C14.1829 17.7272 15.3465 18.0031 16.7804 17.8419C16.9518 17.8211 17.1244 17.8691 17.2606 17.9751C17.3967 18.0813 17.4853 18.237 17.507 18.4083C17.5164 18.4928 17.5088 18.5784 17.4847 18.6601C17.4607 18.7417 17.4207 18.8178 17.3668 18.8838C17.3131 18.9498 17.2468 19.0044 17.1716 19.0445C17.0966 19.0846 17.0143 19.1093 16.9295 19.1173C16.622 19.1531 16.3127 19.1712 16.0031 19.1714Z" fill="white"/>
<path d="M17.1066 2.09621C16.5617 1.74173 14.6299 0.687286 10.9973 0.687286C7.18438 0.687286 5.24779 1.85215 4.81938 2.14821C4.7911 2.16557 4.76461 2.18572 4.74032 2.20836C4.7378 2.21084 4.73445 2.21236 4.73088 2.21266C4.6625 2.27238 4.60759 2.34601 4.56988 2.42862C4.53215 2.51123 4.51252 2.60094 4.51218 2.69175C4.51338 2.77688 4.53134 2.86094 4.56503 2.93911C4.59874 3.01729 4.64755 3.08804 4.70865 3.14731C4.76979 3.20659 4.84198 3.25322 4.92118 3.28454C5.00033 3.31586 5.0849 3.33125 5.17001 3.32983C5.3065 3.32974 5.4396 3.28791 5.55157 3.20995C5.57004 3.1962 7.23677 1.97161 10.9986 1.97161C14.7605 1.97161 16.4363 3.1919 16.4543 3.20092C16.5688 3.28576 16.7077 3.33101 16.85 3.32983C16.9352 3.33114 17.0198 3.3156 17.099 3.28413C17.1782 3.25265 17.2504 3.20585 17.3114 3.1464C17.3725 3.08695 17.4212 3.01604 17.4548 2.93773C17.4884 2.85941 17.5061 2.77524 17.5071 2.69003C17.5071 2.56242 17.469 2.43769 17.3977 2.33189C17.3263 2.22608 17.2249 2.14401 17.1066 2.09621Z" fill="white"/>
</svg>
